<mxfile host="app.diagrams.net" modified="2022-12-18T14:02:31.318Z" agent="5.0 (Macintosh; Intel Mac OS X 10_15_7) AppleWebKit/537.36 (KHTML, like Gecko) Chrome/108.0.0.0 Safari/537.36" version="20.7.4" etag="WJXg1_V2rBnRCihXLYax" type="github">
  <diagram id="s1y3UmnwwLs5SloIIV5L" name="第 1 页">
    <mxGraphModel dx="1434" dy="770" grid="0" gridSize="10" guides="1" tooltips="1" connect="1" arrows="1" fold="1" page="1" pageScale="1" pageWidth="827" pageHeight="1169" math="0" shadow="0">
      <root>
        <mxCell id="0" />
        <mxCell id="1" parent="0" />
        <mxCell id="nLdDs980xOIcKcb0Bd3J-7" value="" style="shape=image;verticalLabelPosition=bottom;labelBackgroundColor=default;verticalAlign=top;aspect=fixed;imageAspect=0;image=https://youimg1.c-ctrip.com/target/01A5r1200096abucr8F77_R_640_10000_Q90.jpg;" vertex="1" parent="1">
          <mxGeometry x="524" y="163" width="392" height="522.67" as="geometry" />
        </mxCell>
        <mxCell id="nLdDs980xOIcKcb0Bd3J-9" value="" style="rounded=1;whiteSpace=wrap;html=1;comic=1;fillColor=none;" vertex="1" parent="1">
          <mxGeometry x="191" y="491" width="113" height="199" as="geometry" />
        </mxCell>
        <mxCell id="nLdDs980xOIcKcb0Bd3J-10" value="" style="rounded=1;whiteSpace=wrap;html=1;comic=1;fillColor=none;" vertex="1" parent="1">
          <mxGeometry x="191" y="690" width="113" height="199" as="geometry" />
        </mxCell>
        <mxCell id="nLdDs980xOIcKcb0Bd3J-12" value="" style="rounded=1;whiteSpace=wrap;html=1;comic=1;fillColor=none;" vertex="1" parent="1">
          <mxGeometry x="369" y="655" width="113" height="199" as="geometry" />
        </mxCell>
        <mxCell id="nLdDs980xOIcKcb0Bd3J-13" value="" style="rounded=1;whiteSpace=wrap;html=1;comic=1;fillColor=none;" vertex="1" parent="1">
          <mxGeometry x="369" y="854" width="113" height="199" as="geometry" />
        </mxCell>
        <mxCell id="nLdDs980xOIcKcb0Bd3J-16" value="第三天" style="text;strokeColor=#d79b00;align=center;fillColor=#ffe6cc;html=1;verticalAlign=middle;whiteSpace=wrap;rounded=0;comic=1;" vertex="1" parent="1">
          <mxGeometry x="217.5" y="701" width="60" height="30" as="geometry" />
        </mxCell>
        <mxCell id="nLdDs980xOIcKcb0Bd3J-21" value="" style="endArrow=none;html=1;curved=1;exitX=0.5;exitY=0;exitDx=0;exitDy=0;" edge="1" parent="1" source="nLdDs980xOIcKcb0Bd3J-13">
          <mxGeometry width="50" height="50" relative="1" as="geometry">
            <mxPoint x="435" y="635" as="sourcePoint" />
            <mxPoint x="250" y="491" as="targetPoint" />
            <Array as="points">
              <mxPoint x="430" y="744" />
              <mxPoint x="430" y="679" />
              <mxPoint x="403" y="638" />
              <mxPoint x="340" y="635" />
              <mxPoint x="284" y="662" />
              <mxPoint x="241" y="645" />
              <mxPoint x="248" y="578" />
              <mxPoint x="241" y="537" />
            </Array>
          </mxGeometry>
        </mxCell>
        <mxCell id="nLdDs980xOIcKcb0Bd3J-14" value="第一天" style="text;strokeColor=#d79b00;align=center;fillColor=#ffe6cc;html=1;verticalAlign=middle;whiteSpace=wrap;rounded=0;comic=1;" vertex="1" parent="1">
          <mxGeometry x="217.5" y="491" width="60" height="30" as="geometry" />
        </mxCell>
        <mxCell id="nLdDs980xOIcKcb0Bd3J-25" value="到达民宿/酒店" style="text;strokeColor=#82b366;align=center;fillColor=#d5e8d4;html=1;verticalAlign=middle;whiteSpace=wrap;rounded=0;comic=1;" vertex="1" parent="1">
          <mxGeometry x="206.75" y="536" width="81.5" height="30" as="geometry" />
        </mxCell>
        <mxCell id="nLdDs980xOIcKcb0Bd3J-29" value="解放碑" style="text;strokeColor=#82b366;align=center;fillColor=#d5e8d4;html=1;verticalAlign=middle;whiteSpace=wrap;rounded=0;comic=1;" vertex="1" parent="1">
          <mxGeometry x="206.75" y="609" width="81.5" height="30" as="geometry" />
        </mxCell>
        <mxCell id="nLdDs980xOIcKcb0Bd3J-15" value="第二天" style="text;strokeColor=#d79b00;align=center;fillColor=#ffe6cc;html=1;verticalAlign=middle;whiteSpace=wrap;rounded=0;comic=1;" vertex="1" parent="1">
          <mxGeometry x="395.5" y="666" width="60" height="30" as="geometry" />
        </mxCell>
      </root>
    </mxGraphModel>
  </diagram>
</mxfile>
